<svg xmlns="http://www.w3.org/2000/svg" viewBox="0 0 384 448"><defs><style>.cls-1{fill:#fff;}</style></defs><title>Ресурс 1</title><g id="Слой_2" data-name="Слой 2"><g id="Capa_1" data-name="Capa 1"><path class="cls-1" d="M192,448c106,0,192-86,192-192C278,256,192,342,192,448ZM55.57,197.33a53.31,53.31,0,0,0,83.52,43.95l-.42,4.05a53.33,53.33,0,1,0,106.66,0l-.42-4.05a52.74,52.74,0,0,0,30.18,9.39,53.21,53.21,0,0,0,22.83-101.34,53.23,53.23,0,1,0-53-91.94l.42-4.06a53.33,53.33,0,0,0-106.66,0l.42,4.06A52.67,52.67,0,0,0,108.91,48,53.21,53.21,0,0,0,86.08,149.33a53.09,53.09,0,0,0-30.51,48ZM192,96a53.34,53.34,0,1,1-53.33,53.33A53.35,53.35,0,0,1,192,96ZM0,256C0,362,86,448,192,448,192,342,106,256,0,256Z"/></g></g></svg>