<svg xmlns="http://www.w3.org/2000/svg" viewBox="0 0 14.4 14.4"><defs><style>.cls-1{fill:#fff;}</style></defs><title>palette</title><g id="Слой_2" data-name="Слой 2"><g id="Слой_1-2" data-name="Слой 1"><path class="cls-1" d="M7.2,0a7.2,7.2,0,0,0,0,14.4,1.23,1.23,0,0,0,1.2-1.2,1,1,0,0,0-.32-.8,1.42,1.42,0,0,1-.32-.8A1.23,1.23,0,0,1,9,10.4H10.4a4,4,0,0,0,4-4C14.4,2.88,11.2,0,7.2,0ZM2.8,7.2A1.23,1.23,0,0,1,1.6,6,1.23,1.23,0,0,1,2.8,4.8a1.2,1.2,0,1,1,0,2.4ZM5.2,4A1.23,1.23,0,0,1,4,2.8,1.23,1.23,0,0,1,5.2,1.6,1.23,1.23,0,0,1,6.4,2.8,1.23,1.23,0,0,1,5.2,4Zm4,0A1.23,1.23,0,0,1,8,2.8a1.2,1.2,0,1,1,2.4,0A1.23,1.23,0,0,1,9.2,4Zm2.4,3.2A1.23,1.23,0,0,1,10.4,6a1.2,1.2,0,1,1,1.2,1.2Z"/></g></g></svg>