<svg xmlns="http://www.w3.org/2000/svg" viewBox="0 0 98.07 51.69"><defs><style>.cls-1{fill:#ed1e79;}.cls-2{fill:#fcee21;}.cls-3{fill:#39b54a;}.cls-4{fill:#5dd1f9;}</style></defs><title>logo</title><g id="Слой_2" data-name="Слой 2"><g id="Layer_1" data-name="Layer 1"><path class="cls-1" d="M39.41,25.1,30,0,56.45,4.42Zm-3.21-20,4.53,12.12L49,7.22Z"/><path class="cls-2" d="M3.93,48.62a11.93,11.93,0,1,1,16.86-.86A11.94,11.94,0,0,1,3.93,48.62ZM17.24,33.87a7.93,7.93,0,1,0,.58,11.21A7.94,7.94,0,0,0,17.24,33.87Z"/><rect class="cls-3" x="44.2" y="32.51" width="24.51" height="4" transform="translate(-8.97 44.4) rotate(-40.04)"/><polygon class="cls-4" points="98.07 34.19 96.25 30.63 87.12 35.3 82.45 26.17 78.89 27.99 83.56 37.12 74.44 41.79 76.26 45.35 85.39 40.68 90.06 49.81 93.62 47.98 88.95 38.86 98.07 34.19"/></g></g></svg>