<svg aria-hidden="true" style="position: absolute; width: 0; height: 0; overflow: hidden;" version="1.1" xmlns="http://www.w3.org/2000/svg" xmlns:xlink="http://www.w3.org/1999/xlink">
<defs>
<symbol id="icon-fb" viewBox="0 0 15 32">
<title>fb</title>
<path  d="M14.772 5.609h-3.492c-1.234 0-1.487 0.5-1.487 1.777v3.085h4.98l-0.481 5.405h-4.498v16.123h-6.442v-16.043h-3.351v-5.467h3.351v-4.319c0-4.042 2.16-6.17 6.96-6.17h4.461z"></path>
</symbol>
<symbol id="icon-google" viewBox="0 0 52 32">
<title>google</title>
<path  d="M16.004 32c-0.005 0-0.011 0-0.017 0-8.839 0-16.004-7.165-16.004-16.004s7.165-16.004 16.004-16.004c4.381 0 8.351 1.76 11.241 4.612l-0.002-0.002-3.288 2.842c-2.075-1.926-4.864-3.108-7.929-3.108-6.444 0-11.668 5.224-11.668 11.668 0 6.443 5.222 11.666 11.664 11.668h0c4.911 0 8.586-3.177 9.762-8.371h-10.037v-4.293h14.862v1.648c0.026 8.869-6.105 15.343-14.588 15.343z"></path>
<path  d="M45.841 19.138v6.139h-3.924v-6.139h-6.139v-3.924h6.139v-6.139h3.924v6.139h6.139v3.924h-6.139z"></path>
</symbol>
<symbol id="icon-mail" viewBox="0 0 45 32">
<title>mail</title>
<path  d="M42.359 0c-0.243 0.294-0.406 0.548-0.609 0.761l-17.136 17.248c-1.532 1.542-2.689 1.552-4.19 0q-8.553-8.604-17.096-17.258c-0.193-0.193-0.375-0.406-0.69-0.751z"></path>
<path  d="M0 3.206l13.088 12.642-13.088 13.382z"></path>
<path  d="M2.557 32l13.098-13.413c2.029 1.938 3.592 4.251 6.747 4.302s4.799-2.232 6.838-4.2l13.007 13.311z"></path>
<path  d="M44.946 29.423l-13.037-13.382q6.646-6.382 13.037-12.591z"></path>
</symbol>
<symbol id="icon-twitter" viewBox="0 0 39 32">
<title>twitter</title>
<path  d="M35.316 7.968c0.508 11.361-7.959 24.032-22.964 24.032-0 0-0.001 0-0.001 0-4.589 0-8.862-1.356-12.439-3.689l0.088 0.054c0.584 0.075 1.26 0.117 1.946 0.117 3.793 0 7.282-1.303 10.044-3.485l-0.034 0.026c-3.519-0.069-6.481-2.374-7.529-5.55l-0.016-0.057c0.459 0.092 0.988 0.145 1.528 0.145 0.756 0 1.487-0.103 2.181-0.297l-0.057 0.014c-3.722-0.776-6.478-4.029-6.478-7.926 0-0.036 0-0.071 0.001-0.107l-0 0.005c1.054 0.603 2.31 0.975 3.649 1.016l0.012 0c-2.182-1.472-3.598-3.934-3.598-6.727 0-1.494 0.405-2.894 1.112-4.095l-0.021 0.038c4.003 4.894 9.921 8.091 16.594 8.439l0.056 0.002c-0.126-0.535-0.198-1.149-0.198-1.779 0-4.467 3.621-8.088 8.088-8.088 2.312 0 4.397 0.97 5.871 2.525l0.003 0.004c1.948-0.384 3.681-1.066 5.241-2.005l-0.073 0.041c-0.624 1.907-1.883 3.461-3.521 4.45l-0.036 0.020c1.713-0.221 3.268-0.679 4.708-1.342l-0.1 0.041c-1.114 1.639-2.46 3.023-4.009 4.145l-0.048 0.033z"></path>
</symbol>
<symbol id="icon-vk" viewBox="0 0 57 32">
<title>vk</title>
<path  d="M50.487 22.087c4.541 4.176 5.538 6.192 5.627 6.447 0 0 1.894 3.323-2.093 3.323l-7.499 0.1c-1.617 0.321-3.766-1.108-3.766-1.108-2.836-1.927-5.538-6.923-7.543-6.28 0 0-2.127 0.676-2.071 5.173 0.003 0.044 0.005 0.096 0.005 0.148 0 0.504-0.168 0.969-0.452 1.341l0.004-0.005c-0.415 0.373-0.958 0.612-1.556 0.642l-0.006 0h-3.445c-7.443 0.432-14.012-6.391-14.012-6.391s-7.2-7.333-13.502-22.020c-0.41-0.964 0-1.429 0-1.429 0.38-0.351 0.889-0.566 1.449-0.566 0.079 0 0.157 0.004 0.234 0.013l-0.010-0.001 8.119-0.055c0.496 0.075 0.938 0.259 1.316 0.527l-0.009-0.006c0.309 0.238 0.549 0.553 0.693 0.916l0.005 0.015c1.044 2.505 2.060 4.558 3.188 6.54l-0.153-0.293c2.957 6.015 4.962 7.045 6.103 6.424 0 0 1.506-0.908 1.185-8.174 0-0.022 0-0.049 0-0.075 0-1.362-0.315-2.651-0.876-3.797l0.023 0.051c-0.637-0.693-1.513-1.157-2.497-1.261l-0.017-0.002c-0.443-0.055 0.299-1.108 1.274-1.573 1.429-0.709 3.999-0.709 7.034-0.709 0.172-0.007 0.374-0.011 0.577-0.011 1.205 0 2.378 0.141 3.502 0.408l-0.103-0.021c2.802 0.665 1.861 3.234 1.861 9.426 0 1.994-0.388 4.763 1.108 5.671 0.609 0.41 2.149 0 5.915-6.314 1.039-1.808 2.080-3.966 2.975-6.199l0.127-0.358c0.138-0.384 0.394-0.697 0.724-0.904l0.007-0.004c0.255-0.121 0.554-0.191 0.869-0.191 0.084 0 0.167 0.005 0.249 0.015l-0.010-0.001 8.485-0.055c2.603-0.354 2.968 0.853 2.968 0.853 0.443 1.196-0.941 3.999-4.431 8.584-5.671 7.532-6.291 6.823-1.573 11.187z"></path>
</symbol>
</defs>
</svg>
