<svg xmlns="http://www.w3.org/2000/svg" viewBox="0 0 45.71 37.15"><defs><style>.cls-1{fill:#fff;}</style></defs><title>twitter</title><g id="Слой_2" data-name="Слой 2"><g id="Layer_1" data-name="Layer 1"><path class="cls-1" d="M41,9.25c.59,13.19-9.24,27.9-26.66,27.9A26.47,26.47,0,0,1,0,32.93a18.82,18.82,0,0,0,13.88-3.88,9.39,9.39,0,0,1-8.76-6.51,9.42,9.42,0,0,0,4.24-.16,9.39,9.39,0,0,1-7.52-9.32,9.25,9.25,0,0,0,4.25,1.18A9.39,9.39,0,0,1,3.18,1.72a26.65,26.65,0,0,0,19.33,9.8A9.39,9.39,0,0,1,38.49,3a18.71,18.71,0,0,0,6-2.28,9.37,9.37,0,0,1-4.13,5.19A18.7,18.7,0,0,0,45.71,4.4,19.1,19.1,0,0,1,41,9.25Z"/></g></g></svg>