<svg xmlns="http://www.w3.org/2000/svg" viewBox="0 0 51.11 28.89"><defs><style>.cls-1{fill:#fff;}</style></defs><title>vk</title><g id="Слой_2" data-name="Слой 2"><g id="Layer_1" data-name="Layer 1"><path class="cls-1" d="M45.58,19.94c4.1,3.77,5,5.59,5.08,5.82,0,0,1.71,3-1.89,3L42,28.85c-1.46.29-3.4-1-3.4-1-2.56-1.74-5-6.25-6.81-5.67,0,0-1.92.61-1.87,4.67a2,2,0,0,1-.4,1.34,2.28,2.28,0,0,1-1.41.58H25C18.28,29.16,12.35,23,12.35,23S5.85,16.38.16,3.12c-.37-.87,0-1.29,0-1.29a1.93,1.93,0,0,1,1.51-.5L9,1.28a2.75,2.75,0,0,1,1.18.47,1.94,1.94,0,0,1,.63.84,53.52,53.52,0,0,0,2.74,5.64c2.67,5.43,4.48,6.36,5.51,5.8,0,0,1.36-.82,1.07-7.38a7.81,7.81,0,0,0-.77-3.45,3.58,3.58,0,0,0-2.27-1.14c-.4-.05.27-1,1.15-1.42C19.53,0,21.85,0,24.59,0a13.63,13.63,0,0,1,3.59.34c2.53.6,1.68,2.92,1.68,8.51,0,1.8-.35,4.3,1,5.12.55.37,1.94,0,5.34-5.7A48,48,0,0,0,39,2.35a1.58,1.58,0,0,1,.66-.82,1.87,1.87,0,0,1,1-.16l7.66-.05C50.67,1,51,2.09,51,2.09c.4,1.08-.85,3.61-4,7.75C41.88,16.64,41.32,16,45.58,19.94Z"/></g></g></svg>